<?xml version="1.0" encoding="UTF-8" standalone="no"?>
<!-- Created with Inkscape (http://www.inkscape.org/) -->

<svg
   width="38.059086mm"
   height="15.676053mm"
   viewBox="0 0 38.059086 15.676053"
   version="1.1"
   id="svg949"
   inkscape:version="1.1 (1:1.1+202105261517+ce6663b3b7)"
   sodipodi:docname="fps_logo.svg"
   xmlns:inkscape="http://www.inkscape.org/namespaces/inkscape"
   xmlns:sodipodi="http://sodipodi.sourceforge.net/DTD/sodipodi-0.dtd"
   xmlns="http://www.w3.org/2000/svg"
   xmlns:svg="http://www.w3.org/2000/svg">
  <sodipodi:namedview
     id="namedview951"
     pagecolor="#ffffff"
     bordercolor="#666666"
     borderopacity="1.0"
     inkscape:pageshadow="2"
     inkscape:pageopacity="0.0"
     inkscape:pagecheckerboard="0"
     inkscape:document-units="mm"
     showgrid="false"
     inkscape:zoom="1.5340488"
     inkscape:cx="-98.758265"
     inkscape:cy="-6.1927625"
     inkscape:window-width="1366"
     inkscape:window-height="714"
     inkscape:window-x="0"
     inkscape:window-y="28"
     inkscape:window-maximized="1"
     inkscape:current-layer="layer1" />
  <defs
     id="defs946" />
  <g
     inkscape:label="Layer 1"
     inkscape:groupmode="layer"
     id="layer1"
     transform="translate(-39.266623,-38.040022)">
    <g
       id="g79598"
       transform="matrix(0.27498884,0,0,0.27498884,9.9871182,-2.8920562)"
       style="stroke-width:0.96216">
      <path
         id="path1122"
         style="fill:#8d4900;fill-opacity:1;fill-rule:evenodd;stroke:none;stroke-width:0.127286;stroke-linecap:round;stroke-linejoin:round;stroke-miterlimit:4;stroke-dasharray:none;stop-color:#000000"
         d="m 115.71351,159.29259 -1.81743,0.38031 -1.47882,39.1654 4.11139,5.23472 z"
         sodipodi:nodetypes="ccccc" />
      <path
         id="path1124"
         style="fill:#b66200;fill-opacity:1;fill-rule:evenodd;stroke:none;stroke-width:0.127286;stroke-linecap:round;stroke-linejoin:round;stroke-miterlimit:4;stroke-dasharray:none;stop-color:#000000"
         d="m 111.05805,158.60739 2.83803,1.06551 -1.47882,39.1654 -5.94201,0.52067 z"
         sodipodi:nodetypes="ccccc" />
      <path
         id="path1278"
         style="fill:#da7400;fill-opacity:1;fill-rule:evenodd;stroke:none;stroke-width:0.127286;stroke-linecap:round;stroke-linejoin:round;stroke-miterlimit:4;stroke-dasharray:none;stop-color:#000000"
         d="m 116.52865,204.07302 -4.11139,-5.23472 -5.94201,0.52067 z"
         sodipodi:nodetypes="cccc" />
      <path
         style="fill:#914c15;fill-opacity:1;stroke:none;stroke-width:0.127286;stroke-linecap:butt;stroke-linejoin:miter;stroke-miterlimit:4;stroke-dasharray:none;stroke-opacity:1"
         d="m 118.40227,158.10967 -0.83833,0.0175 c 0,0 -1.49513,-9.12634 5.29409,-9.27573 5.9271,-0.13042 6.35392,8.42456 6.35392,8.42456 l -0.88761,0.005 c 0,0 -0.0383,-7.78874 -5.48266,-7.69269 -6.03101,0.1064 -4.43941,8.52143 -4.43941,8.52143 z"
         id="path35300"
         sodipodi:nodetypes="ccsccsc" />
      <path
         id="path3247"
         style="fill:#914c15;fill-opacity:1;fill-rule:evenodd;stroke:none;stroke-width:0.127286;stroke-linecap:round;stroke-linejoin:round;stroke-miterlimit:4;stroke-dasharray:none;stop-color:#000000"
         d="m 111.05805,158.60739 2.83803,1.06551 1.81743,-0.38031 25.8048,-2.39104 -3.60826,-0.0964 1.21529,-1.30771 z"
         sodipodi:nodetypes="ccccccc" />
      <path
         style="fill:#af7d40;fill-opacity:1;stroke:none;stroke-width:0.127286;stroke-linecap:butt;stroke-linejoin:miter;stroke-miterlimit:4;stroke-dasharray:none;stroke-opacity:1"
         d="m 122.03211,158.91601 -0.83833,0.0175 c 0,0 -1.49513,-9.12634 5.29409,-9.27573 5.9271,-0.13042 6.35392,8.42456 6.35392,8.42456 l -0.88761,0.005 c 0,0 -0.0383,-7.78874 -5.48266,-7.69269 -6.03101,0.1064 -4.43941,8.52143 -4.43941,8.52143 z"
         id="path35218"
         sodipodi:nodetypes="ccsccsc" />
      <path
         id="rect924"
         style="fill:#d27609;fill-opacity:1;fill-rule:evenodd;stroke:none;stroke-width:0.127286;stroke-linecap:round;stroke-linejoin:round;stroke-miterlimit:4;stroke-dasharray:none;stop-color:#000000"
         d="m 115.71351,159.29259 25.8048,-2.39104 5.68731,41.39026 -30.67697,5.78121 z"
         sodipodi:nodetypes="ccccc" />
      <path
         id="rect3917"
         style="opacity:1;fill:#b8773d;fill-opacity:1;fill-rule:evenodd;stroke:none;stroke-width:0.127286;stroke-linejoin:round;stop-color:#000000;stop-opacity:1"
         d="m 139.12534,155.49744 0.2396,1.26363 -1.45489,0.0441 z"
         sodipodi:nodetypes="cccc" />
    </g>
    <text
       xml:space="preserve"
       style="font-style:normal;font-variant:normal;font-weight:bold;font-stretch:normal;font-size:3.76047px;line-height:1.25;font-family:Ubuntu;-inkscape-font-specification:'Ubuntu, Bold';font-variant-ligatures:normal;font-variant-caps:normal;font-variant-numeric:normal;font-variant-east-asian:normal;letter-spacing:0px;word-spacing:0px;fill:#ffffff;fill-opacity:1;stroke-width:0.0700042"
       x="51.980213"
       y="53.02039"
       id="text42535"><tspan
         sodipodi:role="line"
         id="tspan42533"
         style="font-style:normal;font-variant:normal;font-weight:bold;font-stretch:normal;font-size:3.76047px;font-family:Ubuntu;-inkscape-font-specification:'Ubuntu, Bold';font-variant-ligatures:normal;font-variant-caps:normal;font-variant-numeric:normal;font-variant-east-asian:normal;fill:#ffffff;fill-opacity:1;stroke-width:0.0700042"
         x="51.980213"
         y="53.02039">Fair</tspan></text>
    <text
       xml:space="preserve"
       style="font-style:normal;font-variant:normal;font-weight:bold;font-stretch:normal;font-size:3.76047px;line-height:1.25;font-family:Ubuntu;-inkscape-font-specification:'Ubuntu, Bold';font-variant-ligatures:normal;font-variant-caps:normal;font-variant-numeric:normal;font-variant-east-asian:normal;letter-spacing:0px;word-spacing:0px;fill:#d26f0a;fill-opacity:1;stroke-width:0.0700042"
       x="59.008553"
       y="53.02039"
       id="text43299"><tspan
         sodipodi:role="line"
         id="tspan43297"
         style="font-style:normal;font-variant:normal;font-weight:bold;font-stretch:normal;font-size:3.76047px;font-family:Ubuntu;-inkscape-font-specification:'Ubuntu, Bold';font-variant-ligatures:normal;font-variant-caps:normal;font-variant-numeric:normal;font-variant-east-asian:normal;fill:#d26f0a;fill-opacity:1;stroke-width:0.0700042"
         x="59.008553"
         y="53.02039">Price</tspan></text>
    <text
       xml:space="preserve"
       style="font-style:normal;font-variant:normal;font-weight:bold;font-stretch:normal;font-size:3.76047px;line-height:1.25;font-family:Ubuntu;-inkscape-font-specification:'Ubuntu, Bold';font-variant-ligatures:normal;font-variant-caps:normal;font-variant-numeric:normal;font-variant-east-asian:normal;letter-spacing:0px;word-spacing:0px;fill:#ffffff;fill-opacity:1;stroke-width:0.0700042"
       x="68.32325"
       y="53.02039"
       id="text43303"><tspan
         sodipodi:role="line"
         id="tspan43301"
         style="font-style:normal;font-variant:normal;font-weight:bold;font-stretch:normal;font-size:3.76047px;font-family:Ubuntu;-inkscape-font-specification:'Ubuntu, Bold';font-variant-ligatures:normal;font-variant-caps:normal;font-variant-numeric:normal;font-variant-east-asian:normal;fill:#ffffff;fill-opacity:1;stroke-width:0.0700042"
         x="68.32325"
         y="53.02039">Shop</tspan></text>
    <g
       id="g79605"
       transform="matrix(0.16259869,0,0,0.16259869,-6.512412,18.917328)"
       style="stroke-width:1.62722">
      <path
         style="fill:#d27609;fill-opacity:1;stroke-width:1.62722"
         d="m 429.02146,185.54024 c -0.5106,-1.5654 -3.14627,-9.39462 -5.85703,-17.39826 -6.60951,-19.51483 -8.05901,-23.9405 -8.05901,-24.60602 0,-0.50211 0.86914,-0.8539 8.10522,-3.28063 6.98094,-2.34116 8.33804,-2.71642 9.78366,-2.70532 2.54488,0.0195 3.77246,0.85416 4.91717,3.34318 0.49044,1.0664 0.60716,1.7792 0.60824,3.71469 0.001,2.19434 -0.073,2.54144 -0.88518,4.14163 -1.08314,2.13397 -3.35976,4.49363 -6.34521,6.57664 -1.21748,0.84946 -2.34911,1.58965 -2.51473,1.64485 -0.27598,0.092 0.14493,1.01025 3.09573,6.75354 l 0.72104,1.4034 0.98047,-0.58137 c 9.13865,-5.41874 13.88759,-10.71059 15.2937,-17.04209 1.19121,-5.36384 -1.08562,-12.90809 -4.94898,-16.3984 -0.84721,-0.76541 -1.01418,-1.04385 -0.73282,-1.22207 0.30668,-0.19425 0.30503,-0.23145 -0.0104,-0.23486 -0.20615,-0.002 -0.29708,-0.0818 -0.20205,-0.17682 0.20139,-0.2014 21.13986,-0.12228 21.34265,0.0806 0.075,0.075 0.13631,13.31262 0.13631,29.41687 v 29.28047 l -17.25019,0.0681 -17.2502,0.0681 -0.92836,-2.84619 z"
         id="path51475" />
      <path
         style="fill:#ffffff;fill-opacity:1;stroke-width:1.62722"
         d="m 362.10056,188.20621 c -0.097,-0.097 -0.17639,-13.29837 -0.17639,-29.33635 0,-24.26762 0.0604,-29.21009 0.35995,-29.4587 0.26177,-0.21725 5.58401,-0.28021 19.51302,-0.23083 l 19.15307,0.0679 0.072,4.95855 0.072,4.95855 -13.69802,0.0685 -13.69801,0.0685 -0.0705,6.94282 -0.0705,6.94282 13.03512,0.0686 13.03512,0.0686 v 5.15937 5.15938 l -13.09688,0.13229 -13.09688,0.13229 -0.0688,12.23698 -0.0688,12.23698 h -5.5096 c -3.03023,0 -5.58889,-0.0794 -5.6859,-0.17639 z"
         id="path51471" />
      <path
         style="fill:#ffffff;fill-opacity:1;stroke-width:1.62722"
         d="m 483.10334,188.49393 c -3.23777,-0.35141 -8.48064,-1.34691 -10.84792,-2.05976 l -1.19062,-0.35854 -0.0717,-5.17605 c -0.0831,-5.99776 -0.21572,-5.7525 2.56787,-4.74695 3.37612,1.2196 8.59073,2.15336 13.37881,2.39569 4.97087,0.25158 6.81207,0.18301 9.43434,-0.3514 3.79709,-0.77382 6.41575,-2.75055 7.21669,-5.44763 1.07221,-3.61052 -0.0306,-6.50475 -2.99592,-7.86228 -1.46755,-0.67185 -1.58422,-0.68165 -10.34782,-0.86913 -4.87495,-0.10429 -9.45886,-0.31978 -10.18646,-0.47887 -6.09474,-1.33257 -9.90075,-4.79346 -11.39847,-10.36488 -0.32675,-1.2155 -0.46373,-2.79575 -0.47998,-5.53736 -0.0253,-4.26904 0.41544,-6.30481 2.0204,-9.33205 1.59596,-3.01024 5.47616,-5.91718 9.72576,-7.28625 7.0873,-2.28328 17.91047,-2.46643 27.23264,-0.46082 2.66392,0.57312 4.84385,1.21156 5.25066,1.53777 0.25531,0.20472 0.31911,1.45709 0.26459,5.19358 l -0.0718,4.92381 -0.79375,-0.0329 c -0.43656,-0.0181 -2.06468,-0.40351 -3.61803,-0.85647 -7.39131,-2.1553 -15.78042,-2.61217 -21.64968,-1.17903 -3.65153,0.89161 -5.96781,2.81196 -6.60737,5.47793 -0.46142,1.92342 -0.22389,4.14005 0.563,5.25378 1.68304,2.3821 2.50662,2.58149 10.66251,2.58149 9.32751,0 13.22447,0.57457 17.08876,2.51958 2.48307,1.24979 4.90937,3.88544 5.89691,6.40572 2.64837,6.7588 1.63832,14.92503 -2.44305,19.75202 -3.79884,4.49284 -11.03849,6.81185 -21.05972,6.74585 -2.32833,-0.0153 -5.72161,-0.18941 -7.54062,-0.38684 z"
         id="path51445" />
      <path
         style="fill:#d27609;fill-opacity:1;stroke:none;stroke-width:0.430534px;stroke-linecap:butt;stroke-linejoin:miter;stroke-opacity:1"
         d="m 405.23424,129.5798 h 20.65518 l -20.56953,6.91983 z"
         id="path70241" />
      <path
         style="fill:#d27609;fill-opacity:1;stroke:none;stroke-width:0.430534px;stroke-linecap:butt;stroke-linejoin:miter;stroke-opacity:1"
         d="m 405.3758,187.90508 -0.0146,-39.65901 13.60107,39.94643 z"
         id="path70243" />
    </g>
  </g>
</svg>
