<?xml version="1.0" encoding="UTF-8" standalone="no"?>
<svg
   version="1.1"
   x="0px"
   y="0px"
   viewBox="0 0 127 127"
   enable-background="new 0 0 66 66"
   xml:space="preserve"
   id="svg20"
   sodipodi:docname="logo.svg"
   width="127"
   height="127"
   inkscape:version="1.1 (1:1.1+202105261518+ce6663b3b7)"
   xmlns:inkscape="http://www.inkscape.org/namespaces/inkscape"
   xmlns:sodipodi="http://sodipodi.sourceforge.net/DTD/sodipodi-0.dtd"
   xmlns="http://www.w3.org/2000/svg"
   xmlns:svg="http://www.w3.org/2000/svg"><defs
     id="defs24" /><sodipodi:namedview
     id="namedview22"
     pagecolor="#ffffff"
     bordercolor="#999999"
     borderopacity="1"
     inkscape:pageshadow="0"
     inkscape:pageopacity="0"
     inkscape:pagecheckerboard="0"
     showgrid="false"
     inkscape:zoom="4.9545064"
     inkscape:cx="32.899342"
     inkscape:cy="75.68867"
     inkscape:window-width="1920"
     inkscape:window-height="1026"
     inkscape:window-x="0"
     inkscape:window-y="28"
     inkscape:window-maximized="1"
     inkscape:current-layer="svg20" /><circle
     style="fill:#ffffff;fill-opacity:1;stroke:none;stroke-width:4;stroke-linecap:round;stroke-linejoin:round;stop-color:#000000;opacity:0.0543677"
     id="path3013"
     r="62.905964"
     cy="63.500004"
     cx="63.500004"
     inkscape:export-filename="/opt/lampp/htdocs/premium_spaces/img/mono.png"
     inkscape:export-xdpi="90.050003"
     inkscape:export-ydpi="90.050003" /><g
     id="g14"
     transform="matrix(1.7624634,0,0,1.7624634,3.5227599,1.2574691)"
     style="fill:#ffbe2e;fill-opacity:1;stroke-width:0.56739"><path
       d="m 24.2,22.5 13,-13 c 1.3,-1.3 1.3,-3.4 0,-4.7 -1.3,-1.3 -3.5,-1.3 -4.7,0 l -13,13.1 c -1.3,1.3 -1.3,3.5 0,4.7 1.2,1.2 3.4,1.3 4.7,-0.1 z"
       id="path2"
       style="fill:#ffbe2e;fill-opacity:1;stroke-width:0.56739" /><path
       d="m 35.9,39 c 1.3,1.3 3.4,1.3 4.7,0 L 53.7,25.9 c 1.3,-1.3 1.3,-3.4 0,-4.7 -1.3,-1.3 -3.5,-1.3 -4.7,0 L 36,34.3 c -1.5,1.3 -1.4,3.4 -0.1,4.7 z"
       id="path4"
       style="fill:#ffbe2e;fill-opacity:1;stroke-width:0.56739" /><path
       d="m 25.5,24.1 8.9,8.9 c 0,-0.1 0.1,-0.1 0.1,-0.1 l 13,-13 c 0,0 0.1,-0.1 0.1,-0.1 l -8.9,-8.9 c 0,0 -0.1,0.1 -0.1,0.1 l -13,13 c 0,0 -0.1,0 -0.1,0.1 z"
       id="path6"
       style="fill:#ffbe2e;fill-opacity:1;stroke-width:0.56739" /><path
       d="M 26.1,27.5 2.4,49.9 C 0.6,51.6 0.6,54.4 2.3,56.1 4.1,57.9 6.9,57.8 8.5,56 L 30.9,32.2 Z"
       id="path8"
       style="fill:#ffbe2e;fill-opacity:1;stroke-width:0.56739" /><path
       d="m 33,50.8 v 1.8 h -1.4 c -1.6,0 -2.9,1.3 -2.9,2.9 v 2.6 H 63 v -2.6 c 0,-1.6 -1.3,-2.9 -2.9,-2.9 h -1.4 v -1.8 c 0,-1.6 -1.3,-2.9 -2.9,-2.9 H 35.9 c -1.6,0 -2.9,1.3 -2.9,2.9 z"
       id="path10"
       style="fill:#ffbe2e;fill-opacity:1;stroke-width:0.56739" /><path
       d="M 64,60.2 H 27.5 c -0.6,0 -1,0.4 -1,1 0,0.6 0.4,1 1,1 H 64 c 0.6,0 1,-0.4 1,-1 0,-0.6 -0.4,-1 -1,-1 z"
       id="path12"
       style="fill:#ffbe2e;fill-opacity:1;stroke-width:0.56739" /></g></svg>
